<?xml version="1.0" encoding="UTF-8" standalone="no"?>
<!DOCTYPE svg PUBLIC "-//W3C//DTD SVG 1.1//EN" "http://www.w3.org/Graphics/SVG/1.1/DTD/svg11.dtd">
<svg width="100%" height="100%" viewBox="0 0 801 801" version="1.1" xmlns="http://www.w3.org/2000/svg" xmlns:xlink="http://www.w3.org/1999/xlink" xml:space="preserve" xmlns:serif="http://www.serif.com/" style="fill-rule:evenodd;clip-rule:evenodd;stroke-linejoin:round;stroke-miterlimit:2;">
    <g transform="matrix(1,0,0,1,-2274.27,-2278.48)">
        <g transform="matrix(5.55556,0,0,5.55556,0,0)">
            <g transform="matrix(-0.573566,0.81916,0.81916,0.573566,492.659,478.053)">
                <path d="M9.834,-18.892C16.465,-18.892 21.84,-13.517 21.839,-6.886C21.84,-0.256 16.465,5.119 9.834,5.12C3.204,5.12 -2.172,-0.256 -2.171,-6.885C-2.171,-13.516 3.204,-18.892 9.834,-18.892" style="fill:rgb(227,133,44);fill-rule:nonzero;"/>
            </g>
        </g>
        <g transform="matrix(5.55556,0,0,5.55556,0,0)">
            <g transform="matrix(-133.668,-70.6533,-70.6533,133.668,546.656,528.537)">
                <path d="M0.998,-0.129C1.03,0.132 0.845,0.371 0.584,0.403C0.487,0.416 0.389,0.398 0.303,0.352C0.165,0.279 0.072,0.144 0.052,-0.01C0.032,-0.176 0.097,-0.337 0.228,-0.442L0.264,-0.47C0.267,-0.473 0.271,-0.473 0.274,-0.471L0.486,-0.359C0.487,-0.359 0.49,-0.359 0.491,-0.36C0.493,-0.362 0.669,-0.521 0.669,-0.521C0.672,-0.523 0.676,-0.524 0.68,-0.522L0.721,-0.504C0.73,-0.5 0.739,-0.495 0.747,-0.491C0.885,-0.418 0.978,-0.283 0.998,-0.129ZM0.587,0.323C0.793,0.29 0.94,0.101 0.92,-0.107C0.907,-0.246 0.824,-0.36 0.71,-0.421C0.705,-0.423 0.7,-0.426 0.694,-0.429C0.691,-0.43 0.687,-0.43 0.684,-0.427L0.574,-0.328C0.569,-0.323 0.57,-0.315 0.576,-0.312L0.636,-0.28C0.705,-0.244 0.752,-0.176 0.761,-0.099C0.778,0.031 0.685,0.151 0.555,0.167C0.506,0.173 0.457,0.164 0.414,0.141C0.345,0.105 0.298,0.037 0.289,-0.04C0.279,-0.117 0.308,-0.194 0.365,-0.246L0.416,-0.292C0.421,-0.296 0.42,-0.304 0.414,-0.308L0.283,-0.377C0.28,-0.379 0.275,-0.378 0.272,-0.376C0.171,-0.292 0.114,-0.16 0.131,-0.02C0.148,0.114 0.229,0.223 0.34,0.282C0.413,0.32 0.499,0.337 0.587,0.323ZM0.556,0.086C0.634,0.071 0.689,-0.001 0.684,-0.08C0.68,-0.137 0.646,-0.185 0.599,-0.21L0.507,-0.259C0.503,-0.26 0.499,-0.26 0.496,-0.257L0.419,-0.187C0.382,-0.154 0.361,-0.103 0.367,-0.05C0.374,0.004 0.407,0.048 0.451,0.071C0.482,0.087 0.519,0.094 0.556,0.086Z" style="fill:url(#_Radial1);fill-rule:nonzero;"/>
            </g>
        </g>
    </g>
    <defs>
        <radialGradient id="_Radial1" cx="0" cy="0" r="1" gradientUnits="userSpaceOnUse" gradientTransform="matrix(1,0,0,-1,0,-0.108561)"><stop offset="0" style="stop-color:rgb(248,205,113);stop-opacity:1"/><stop offset="0.01" style="stop-color:rgb(248,205,113);stop-opacity:1"/><stop offset="1" style="stop-color:rgb(238,142,55);stop-opacity:1"/></radialGradient>
    </defs>
</svg>
